PathFileType	4	(X/Y/Z)	/Users/itak/Documents/Research/Walk-IL/dataset/trc/00482_00167.trc
DataRate	CameraRate	NumFrames	NumMarkers	Units	OrigDataRate	OrigDataStartFrame	OrigNumFrames
100.000000	100.000000	4	53	mm	100.000000	345	552
Frame#	Time	RPSI			LPSI			L3			STRN			T10			C7			CLAV			RBAK			LBAK			LSHO			LUPA			LAEL			LAOL			LWTS			LWPS			LFRA			LIFD			LHPS			LHTS			RSHO			RUPA			RAEL			RAOL			RWTS			RWPS			RFRA			RIFD			RHTS			RHPS			RBHD			LFHD			RFHD			LBHD			LHIP			RHIP			RASI			LASI			LKNE			LTHI			LANK			LTIP			LTOE			LMT1			LMT5			LHEE			RKNE			RTHI			RANK			RTIP			RTOE			RMT1			RMT5			RHEE			
		X1	Y1	Z1	X2	Y2	Z2	X3	Y3	Z3	X4	Y4	Z4	X5	Y5	Z5	X6	Y6	Z6	X7	Y7	Z7	X8	Y8	Z8	X9	Y9	Z9	X10	Y10	Z10	X11	Y11	Z11	X12	Y12	Z12	X13	Y13	Z13	X14	Y14	Z14	X15	Y15	Z15	X16	Y16	Z16	X17	Y17	Z17	X18	Y18	Z18	X19	Y19	Z19	X20	Y20	Z20	X21	Y21	Z21	X22	Y22	Z22	X23	Y23	Z23	X24	Y24	Z24	X25	Y25	Z25	X26	Y26	Z26	X27	Y27	Z27	X28	Y28	Z28	X29	Y29	Z29	X30	Y30	Z30	X31	Y31	Z31	X32	Y32	Z32	X33	Y33	Z33	X34	Y34	Z34	X35	Y35	Z35	X36	Y36	Z36	X37	Y37	Z37	X38	Y38	Z38	X39	Y39	Z39	X40	Y40	Z40	X41	Y41	Z41	X42	Y42	Z42	X43	Y43	Z43	X44	Y44	Z44	X45	Y45	Z45	X46	Y46	Z46	X47	Y47	Z47	X48	Y48	Z48	X49	Y49	Z49	X50	Y50	Z50	X51	Y51	Z51	X52	Y52	Z52	X53	Y53	Z53	

346	3.45	396.6433715820312	924.3916015625	-407.5703430175781	402.3056335449219	927.497314453125	-265.8685607910156	370.6563720703125	1034.775146484375	-328.1151733398438	66.77190399169922	1187.94091796875	-312.9887390136719	356.344970703125	1157.33984375	-303.1649475097656	255.0529174804688	1411.641967773438	-285.5930480957031	86.65348052978516	1304.634643554688	-300.5698852539062	345.2784423828125	1307.5703125	-379.6933288574219	285.3587951660156	1361.738891601562	-188.6020660400391	174.2642822265625	1360.00634765625	-118.7652053833008	188.0437164306641	1234.482177734375	-30.282470703125	165.5279235839844	1017.586975097656	-16.13365745544434	248.9710388183594	1000.518188476562	-74.58448028564453	35.26082992553711	868.3429565429688	-109.4869079589844	77.80471038818359	822.451416015625	-69.16159057617188	122.0672454833984	938.4848022460938	-30.55523681640625	-15.04619884490967	718.95166015625	-145.0535583496094	51.5847282409668	754.1409912109375	-91.33713531494141	-3.720562934875488	790.5244750976562	-122.8290939331055	217.6095733642578	1390.917602539062	-450.57861328125	259.1863403320312	1350.672119140625	-525.6993408203125	327.5177307128906	1102.516357421875	-650.833740234375	373.3311462402344	1076.838256835938	-607.240234375	223.8843078613281	895.9595947265625	-671.3855590820312	297.9037475585938	891.625	-720.677734375	328.0601196289062	1047.541259765625	-675.100830078125	219.70556640625	746.7926635742188	-716.122802734375	208.28857421875	805.8218994140625	-706.12939453125	279.4521484375	807.2759399414062	-740.0244750976562	120.9645462036133	1599.378295898438	-378.2921447753906	-21.49758911132812	1561.534057617188	-233.2239990234375	-13.19728088378906	1572.97314453125	-363.2315063476562	124.7355575561523	1593.299682617188	-200.8838958740234	287.2078857421875	816.12158203125	-144.1539611816406	254.31298828125	844.325439453125	-546.2487182617188	167.7391815185547	888.7243041992188	-463.1193237304688	178.3935089111328	844.547119140625	-210.6719360351562	378.2749328613281	414.4977111816406	-214.359619140625	311.2028503417969	553.7996215820312	-181.3849029541016	582.0878295898438	37.17826461791992	-244.8653717041016	441.4905700683594	271.9154663085938	-212.7617950439453	399.9688720703125	66.89273834228516	-385.3122253417969	475.8082275390625	64.82563781738281	-384.8044738769531	429.6942443847656	33.77995300292969	-286.080078125	644.5802001953125	62.10575103759766	-289.0409545898438	48.40620422363281	502.6456298828125	-526.6256713867188	161.9557952880859	737.16552734375	-559.6477661132812	-87.41654968261719	65.89204406738281	-526.0853271484375	-15.24482727050781	373.4473876953125	-541.89697265625	-269.4981994628906	111.1346282958984	-442.4299621582031	-207.67822265625	100.5497665405273	-414.960693359375	-216.4555053710938	63.6685791015625	-512.6185302734375	-16.12678337097168	71.99463653564453	-495.0245361328125	
347	3.46	387.4198913574219	923.2328491210938	-410.5909118652344	394.4209289550781	926.6231689453125	-268.9697570800781	362.4534301757812	1033.136474609375	-330.85888671875	59.12956237792969	1186.926635742188	-313.1625366210938	348.8362121582031	1155.717529296875	-305.702880859375	248.1347808837891	1410.149780273438	-287.0151672363281	79.52376556396484	1303.520141601562	-300.8692321777344	337.4445190429688	1305.93115234375	-381.7267456054688	279.1713562011719	1360.041137695312	-190.3214721679688	168.6728820800781	1358.207397460938	-119.6207962036133	183.0016784667969	1232.247802734375	-31.74936103820801	160.0919952392578	1015.303771972656	-18.64234352111816	243.1290588378906	998.3289794921875	-77.72231292724609	28.75382995605469	867.0228271484375	-111.8448867797852	71.31679534912109	820.7120971679688	-72.03773498535156	116.3114395141602	936.4464111328125	-33.13961410522461	-22.31808853149414	718.07763671875	-148.2444610595703	44.77126312255859	752.6480102539062	-94.59498596191406	-10.54110622406006	789.3989868164062	-125.5738372802734	209.6927032470703	1389.654663085938	-451.7295227050781	251.0728759765625	1349.515014648438	-526.9953002929688	319.0588073730469	1101.401611328125	-652.5586547851562	364.8550415039062	1075.729614257812	-608.9447631835938	215.7109375	894.5787963867188	-672.9530639648438	289.64013671875	890.4379272460938	-722.4832153320312	319.6576232910156	1046.421630859375	-676.8663330078125	211.8854064941406	745.3405151367188	-717.6370849609375	200.2962341308594	804.3093872070312	-707.63232421875	271.4291076660156	806.0148315429688	-741.7210083007812	113.940071105957	1598.244262695312	-378.6846313476562	-27.93493461608887	1560.555541992188	-233.0242004394531	-20.19269752502441	1571.99609375	-363.0685424804688	118.4151382446289	1592.1435546875	-201.2898712158203	281.0394897460938	815.3026733398438	-145.8479156494141	244.0444183349609	842.3526611328125	-547.5059204101562	158.1769714355469	886.76171875	-463.5650024414062	171.3816680908203	843.2093505859375	-210.99853515625	373.7023620605469	414.0614318847656	-214.7994995117188	305.9924926757812	553.1621704101562	-182.0570678710938	581.840576171875	38.53598403930664	-245.0132446289062	438.6193237304688	272.1151123046875	-212.8187561035156	399.8300476074219	66.38253021240234	-385.3907470703125	475.3828430175781	64.79064178466797	-384.9829406738281	429.4949951171875	33.64818954467773	-286.2064819335938	643.9180297851562	64.56455993652344	-289.1397705078125	40.53051376342773	499.1308288574219	-525.0062866210938	151.8747863769531	734.6171264648438	-559.4054565429688	-89.08953857421875	61.59442901611328	-522.056396484375	-21.44099617004395	368.8692016601562	-539.1102294921875	-271.7626342773438	103.9574661254883	-438.3101806640625	-209.9696502685547	93.32293701171875	-410.8994445800781	-218.2522277832031	58.04556655883789	-509.1318664550781	-18.0074634552002	67.87364196777344	-490.6365356445312	
348	3.47	377.8927001953125	922.1400756835938	-413.7188110351562	386.2649230957031	925.763671875	-272.1891784667969	353.9031677246094	1031.515991210938	-333.6908874511719	51.12078094482422	1185.875366210938	-313.3353881835938	340.9288940429688	1154.09228515625	-308.3616027832031	240.8716735839844	1408.651000976562	-288.6060180664062	72.01678466796875	1302.375732421875	-301.2298583984375	329.2207336425781	1304.262939453125	-383.9167175292969	272.6385498046875	1358.348510742188	-192.2285614013672	162.7955322265625	1356.49267578125	-120.6288681030273	177.7130584716797	1230.150390625	-33.30330276489258	154.4319915771484	1013.149963378906	-21.16449928283691	237.0550842285156	996.2896728515625	-80.85842132568359	22.07684516906738	865.7552490234375	-114.2141189575195	64.64450836181641	819.05615234375	-74.88661956787109	110.3536148071289	934.5177612304688	-35.71506500244141	-29.57568550109863	717.1932373046875	-151.5199432373047	37.83209228515625	751.2150268554688	-97.83566284179688	-17.4945182800293	788.2925415039062	-128.3337097167969	201.3615264892578	1388.347045898438	-452.9970703125	242.5195770263672	1348.316284179688	-528.4193115234375	310.3051452636719	1100.242431640625	-654.3126831054688	356.0833435058594	1074.617309570312	-610.642822265625	207.4538726806641	893.0089721679688	-674.5667114257812	281.3208923339844	889.1408081054688	-724.2968139648438	311.0118713378906	1045.251098632812	-678.65625	204.3262786865234	743.63037109375	-719.0681762695312	192.4227142333984	802.5358276367188	-709.0773315429688	263.5549621582031	804.6102294921875	-743.3478393554688	106.6102447509766	1597.111694335938	-379.2041931152344	-34.63258743286133	1559.623779296875	-232.9012298583984	-27.49566650390625	1571.050537109375	-362.9858703613281	111.8384857177734	1591.0087890625	-201.8287506103516	274.6859741210938	814.4808959960938	-147.5786743164062	233.4405517578125	840.3333740234375	-548.738525390625	148.3656921386719	884.6617431640625	-463.9393005371094	164.1940612792969	841.86181640625	-211.1723480224609	368.9468688964844	413.6335144042969	-215.1277160644531	300.5420227050781	552.5172729492188	-182.6534729003906	581.5350341796875	39.99409866333008	-245.0184783935547	435.5812072753906	272.3716125488281	-212.7512359619141	399.7117614746094	65.87843322753906	-385.5472717285156	474.9962768554688	64.88697052001953	-385.0934753417969	429.2913513183594	33.52655029296875	-286.3250122070312	643.17138671875	67.21221160888672	-289.054443359375	32.80154037475586	495.3554992675781	-523.36962890625	141.5948181152344	731.9168701171875	-559.124755859375	-90.23482513427734	57.32476806640625	-518.0239868164062	-27.29056167602539	363.9716796875	-536.256103515625	-274.2308044433594	96.96860504150391	-434.8285217285156	-212.2919464111328	86.33287048339844	-407.4138793945312	-219.6689300537109	53.08116912841797	-506.3744201660156	-19.46571922302246	63.35017013549805	-485.9869689941406	
349	3.48	368.0870056152344	921.0783081054688	-416.9304504394531	377.8466186523438	924.8845825195312	-275.5060424804688	345.0145568847656	1029.909301757812	-336.5910034179688	42.74166107177734	1184.775390625	-313.5245971679688	332.6159362792969	1152.45703125	-311.1246643066406	233.2446899414062	1407.146728515625	-290.3638305664062	64.11225128173828	1301.193481445312	-301.6679382324219	320.6009826660156	1302.565795898438	-386.2563781738281	265.7367553710938	1356.669799804688	-194.3158721923828	156.5964202880859	1354.86181640625	-121.7896118164062	172.1591186523438	1228.192749023438	-34.94527816772461	148.5789184570312	1011.127075195312	-23.68249320983887	230.7640075683594	994.40576171875	-84.00304412841797	15.23474311828613	864.5426025390625	-116.5547103881836	57.81294250488281	817.487548828125	-77.6834716796875	104.223503112793	932.6986083984375	-38.26488876342773	-36.84912872314453	716.3009643554688	-154.7948150634766	30.78743553161621	749.8446044921875	-101.0277328491211	-24.58048629760742	787.2074584960938	-131.0500793457031	192.6035461425781	1386.986083984375	-454.3861389160156	233.5116424560547	1347.061401367188	-529.9782104492188	301.22509765625	1099.03369140625	-656.1212768554688	346.9917297363281	1073.49267578125	-612.374267578125	199.0822906494141	891.2451782226562	-676.253662109375	272.9065856933594	887.7283935546875	-726.1578979492188	302.0902709960938	1044.030883789062	-680.4996337890625	196.9985046386719	741.659912109375	-720.4122924804688	184.6481628417969	800.5004272460938	-710.4691162109375	255.7897338867188	803.0460205078125	-744.9192504882812	98.97016906738281	1595.9833984375	-379.8535766601562	-41.59702682495117	1558.740600585938	-232.860107421875	-35.1103401184082	1570.147827148438	-362.9876098632812	105.0066299438477	1589.890625	-202.505859375	268.1181945800781	813.6451416015625	-149.3349761962891	222.5288238525391	838.2576293945312	-549.9472045898438	138.3141937255859	882.4437255859375	-464.2611694335938	156.8209228515625	840.5134887695312	-211.2143402099609	363.9985961914062	413.2051391601562	-215.3542938232422	294.8466491699219	551.8587036132812	-183.1723175048828	581.1661987304688	41.55363464355469	-244.9038238525391	432.3730163574219	272.67919921875	-212.5733795166016	399.5728454589844	65.37505340576172	-385.7833251953125	474.6136474609375	65.13412475585938	-385.1261596679688	429.07080078125	33.41155242919922	-286.4266967773438	642.3427124023438	70.06224060058594	-288.8101196289062	25.18158340454102	491.3829650878906	-521.725341796875	131.1343994140625	729.090087890625	-558.8262329101562	-90.82412719726562	53.18885040283203	-513.977783203125	-32.81920623779297	358.7948608398438	-533.3236083984375	-276.8990783691406	90.18502044677734	-431.8171997070312	-214.5798950195312	79.67042541503906	-404.4153442382812	-220.6864318847656	48.91201019287109	-504.252685546875	-20.48439407348633	58.4652099609375	-481.1089172363281	
